<svg id="Capa_1" enable-background="new 0 0 512 512" height="512" viewBox="0 0 512 512" width="512" xmlns="http://www.w3.org/2000/svg"><g><path d="m415.721 105.381c-39.937-62.682-109.887-105.381-189.721-105.381-26.717 0-52.233 5.898-76.007 14.444l-30.59 89.03-102.976 41.101c-9.831 25.278-16.427 52.672-16.427 81.425 0 124.265 101.735 225 226 225 82.797 0 154.951-44.854 194.02-111.458z" fill="#76e2f8"/><path d="m420.02 339.542-4.299-234.161c-39.937-62.682-109.887-105.381-189.721-105.381v451c82.797 0 154.951-44.854 194.02-111.458z" fill="#73bcff"/><g><path d="m36.728 195.238 36.272 23.888v27.689c0 3.911 1.887 7.661 4.611 10.459l32.389 32.872v36.328c0 3.516 1.23 6.914 3.472 9.609l35.785 43.447c4.048 4.843 10.679 6.641 16.641 4.497 5.933-2.153 10.103-7.793 10.103-14.106v-28.711l22.754-17.227c3.779-2.827 6.006-7.28 6.006-11.997v-15.513l24.565-24.565c3.252-3.252 4.834-7.822 4.292-12.393-.557-4.57-3.164-8.643-7.104-11.03l-82.72-50.303c-2.345-1.42-5.04-2.182-7.794-2.182h-28.603l9.443-39.316 50.757-25.825c1.392-.718 2.681-1.655 3.794-2.769l43.447-43.447c3.076-3.076 4.658-7.324 4.351-11.66-.293-4.336-2.461-8.32-5.933-10.928l-63.263-47.611c-61.218 22.005-110.048 69.653-133.566 130.131l14.251 42.827c1.069 3.222 3.208 5.976 6.05 7.836z" fill="#f0f7ff"/><path d="m415.721 105.381-53.447 18.402-33.281-5.537-10.884-16.318c-3.779-5.64-10.796-8.115-17.227-5.903l-64.628 21.724c-4.644 1.538-8.247 5.273-9.639 9.976s-.396 9.785 2.666 13.623l57.391 72.422c3.691 4.585 9.683 6.665 15.366 5.171l22.515-5.64 9.445 6.357v20.947c0 3.765 1.497 7.412 4.061 10.181l81.96 88.757c19.568-33.359 30.981-72.075 30.981-113.543 0-44.431-13.052-85.734-35.279-120.619z" fill="#dfe7f4"/></g><g><path d="m497 376h-17.518c-2.309-13.621-7.575-26.168-15.286-36.985l11.662-11.662c5.859-5.859 5.859-15.352 0-21.211s-15.352-5.859-21.211 0l-11.664 11.664c-10.818-7.707-23.366-12.969-36.984-15.275v-16.531c0-8.291-6.709-15-15-15s-15 6.709-15 15v16.531c-13.618 2.305-26.166 7.568-36.984 15.275l-11.664-11.664c-5.859-5.859-15.352-5.859-21.211 0s-5.859 15.352 0 21.211l11.662 11.662c-7.711 10.818-12.977 23.364-15.286 36.985h-16.516c-8.291 0-15 6.709-15 15s6.709 15 15 15h16.514c2.303 13.623 7.568 26.177 15.276 36.998l-11.649 11.649c-5.859 5.859-5.859 15.352 0 21.211s15.352 5.859 21.211 0l11.648-11.647c10.822 7.712 23.375 12.98 37 15.287v17.502c0 8.291 6.709 15 15 15s15-6.709 15-15v-17.501c13.625-2.307 26.179-7.575 37-15.287l11.647 11.647c5.859 5.859 15.352 5.859 21.211 0s5.859-15.352 0-21.211l-11.649-11.649c7.709-10.822 12.973-23.375 15.276-36.998h17.515c8.291 0 15-6.709 15-15s-6.709-15.001-15-15.001z" fill="#c3ea21"/><path d="m406 497v-17.501c13.625-2.307 26.179-7.575 37-15.287l11.647 11.647c5.859 5.859 15.352 5.859 21.211 0s5.859-15.352 0-21.211l-11.649-11.649c7.709-10.822 12.973-23.375 15.276-36.998h17.515c8.291 0 15-6.709 15-15s-6.709-15-15-15h-17.518c-2.309-13.621-7.575-26.168-15.286-36.985l11.662-11.662c5.859-5.859 5.859-15.352 0-21.211s-15.352-5.859-21.211 0l-11.664 11.664c-10.818-7.707-23.366-12.969-36.984-15.275v-16.532c0-8.291-6.709-15-15-15v241c8.292 0 15.001-6.709 15.001-15z" fill="#9cdd05"/><circle cx="391" cy="391" fill="#59c36a" r="60"/><circle cx="375.999" cy="406.011" fill="#c3ea21" r="15"/><path d="m451 391c0 32.999-27.001 60-60 60v-120c32.999 0 60 26.999 60 60z" fill="#00a66c"/></g></g></svg>